<?xml version="1.0" encoding="UTF-8" standalone="no" ?>
<!DOCTYPE svg PUBLIC "-//W3C//DTD SVG 1.1//EN" "http://www.w3.org/Graphics/SVG/1.1/DTD/svg11.dtd">
<svg xmlns="http://www.w3.org/2000/svg" xmlns:xlink="http://www.w3.org/1999/xlink" version="1.1" width="1080" height="1080" viewBox="-15 -32.5 1080 1080" xml:space="preserve">
<desc>Created with Fabric.js 5.2.4</desc>
<defs>
</defs>
<rect x="0" y="0" width="100%" height="100%" fill="transparent"></rect>
<g transform="matrix(1 0 0 1 540 540)" id="8945ccc2-1400-44f5-bde2-be5a316d2fbe"  >
<rect style="stroke: none; stroke-width: 1; stroke-dasharray: none; stroke-linecap: butt; stroke-dashoffset: 0; stroke-linejoin: miter; stroke-miterlimit: 4; fill: rgb(255,255,255); fill-rule: nonzero; opacity: 1; visibility: hidden;" vector-effect="non-scaling-stroke"  x="-540" y="-540" rx="0" ry="0" width="1080" height="1080" />
</g>
<g transform="matrix(1 0 0 1 540 540)" id="0a2ff366-3db7-4f0c-b5e8-701902981b6f"  >
</g>
<g transform="matrix(0.4 0 0 0.4 473.41 540)"  >
<g style="" vector-effect="non-scaling-stroke"   >
		<g transform="matrix(5.83 0 0 5.83 0 0)"  >
<path style="stroke: rgb(255,255,255); stroke-opacity: 0; stroke-width: 1; stroke-dasharray: none; stroke-linecap: butt; stroke-dashoffset: 0; stroke-linejoin: miter; stroke-miterlimit: 4; fill: rgb(49,196,141); fill-rule: nonzero; opacity: 1;" vector-effect="non-scaling-stroke"  transform=" translate(-171.43, -171.43)" d="M 0 171.426 C 0 76.74999999999999 76.75 0 171.426 0 C 266.102 0 342.852 76.75 342.852 171.426 C 342.852 266.102 266.102 342.852 171.426 342.852 C 76.74999999999999 342.852 0 266.102 0 171.426 z M 171.426 337.363 C 263.07099999999997 337.363 337.363 263.07 337.363 171.426 C 337.363 79.78099999999999 263.07 5.488999999999976 171.426 5.488999999999976 C 79.78099999999999 5.488999999999976 5.488999999999976 79.78199999999998 5.488999999999976 171.426 C 5.488999999999976 263.07099999999997 79.78199999999998 337.363 171.426 337.363 z" stroke-linecap="round" />
</g>
		<g transform="matrix(5.83 0 0 5.83 0 0)"  >
<ellipse style="stroke: rgb(255,255,255); stroke-opacity: 0; stroke-width: 0; stroke-dasharray: none; stroke-linecap: butt; stroke-dashoffset: 0; stroke-linejoin: miter; stroke-miterlimit: 4; fill: rgb(49,196,141); fill-rule: nonzero; opacity: 1;" vector-effect="non-scaling-stroke"  cx="0" cy="0" rx="164.56874808852183" ry="164.56874808852183" />
</g>
		<g transform="matrix(7.36 0 0 7.36 0 160.61)" id="text-0"  >
<path style="stroke: none; stroke-width: 1; stroke-dasharray: none; stroke-linecap: butt; stroke-dashoffset: 0; stroke-linejoin: miter; stroke-miterlimit: 4; fill: rgb(255,255,255); fill-rule: nonzero; opacity: 1;" vector-effect="non-scaling-stroke"  transform=" translate(-85.87, 13.25)" d="M 15.75 0 L 11.74 0 L 11.74 -30.44 L 1.44 -30.44 L 1.44 -33.84 L 26.07 -33.84 L 26.07 -30.44 L 15.75 -30.44 L 15.75 0 Z M 35.74 0 L 31.78 0 L 31.78 -24.98 L 35.08 -24.98 L 35.45 -20.46 L 35.54 -20.46 Q 36.86 -22.8 38.69 -24.21 Q 40.52 -25.61 42.65 -25.61 L 42.65 -25.61 Q 44.26 -25.61 45.29 -25.1 L 45.29 -25.1 L 44.41 -21.73 Q 43.87 -21.9 43.39 -21.97 Q 42.92 -22.05 42.14 -22.05 L 42.14 -22.05 Q 40.55 -22.05 38.79 -20.74 Q 37.03 -19.43 35.74 -16.16 L 35.74 -16.16 L 35.74 0 Z M 55.22 0.61 L 55.22 0.61 Q 52.09 0.61 50 -1.21 Q 47.9 -3.03 47.9 -6.42 L 47.9 -6.42 Q 47.9 -10.52 51.62 -12.72 Q 55.34 -14.92 63.37 -15.82 L 63.37 -15.82 Q 63.37 -17.48 62.92 -18.97 Q 62.47 -20.46 61.34 -21.41 Q 60.2 -22.36 58.1 -22.36 L 58.1 -22.36 Q 55.88 -22.36 53.94 -21.51 Q 52 -20.65 50.53 -19.73 L 50.53 -19.73 L 48.99 -22.36 Q 50.65 -23.51 53.18 -24.56 Q 55.71 -25.61 58.74 -25.61 L 58.74 -25.61 Q 63.3 -25.61 65.31 -22.8 Q 67.33 -20 67.33 -15.41 L 67.33 -15.41 L 67.33 0 L 64.03 0 L 63.72 -3.03 L 63.57 -3.03 Q 61.76 -1.54 59.65 -0.46 Q 57.54 0.61 55.22 0.61 Z M 56.29 -2.56 L 56.29 -2.56 Q 58.17 -2.56 59.82 -3.44 Q 61.47 -4.32 63.37 -5.96 L 63.37 -5.96 L 63.37 -13.18 Q 59.05 -12.65 56.51 -11.77 Q 53.97 -10.89 52.88 -9.64 Q 51.78 -8.4 51.78 -6.74 L 51.78 -6.74 Q 51.78 -4.52 53.1 -3.54 Q 54.41 -2.56 56.29 -2.56 Z M 85.1 0.61 L 85.1 0.61 Q 81.8 0.61 79.17 -0.93 Q 76.53 -2.47 74.99 -5.38 Q 73.45 -8.3 73.45 -12.45 L 73.45 -12.45 Q 73.45 -16.63 75.11 -19.57 Q 76.77 -22.51 79.5 -24.06 Q 82.22 -25.61 85.39 -25.61 L 85.39 -25.61 Q 87.88 -25.61 89.64 -24.76 Q 91.4 -23.9 92.72 -22.66 L 92.72 -22.66 L 90.72 -20.19 Q 89.67 -21.17 88.38 -21.74 Q 87.1 -22.31 85.56 -22.31 L 85.56 -22.31 Q 83.24 -22.31 81.43 -21.07 Q 79.61 -19.82 78.56 -17.61 Q 77.51 -15.41 77.51 -12.45 L 77.51 -12.45 Q 77.51 -8.06 79.7 -5.36 Q 81.9 -2.66 85.47 -2.66 L 85.47 -2.66 Q 87.25 -2.66 88.76 -3.34 Q 90.28 -4.03 91.42 -5.08 L 91.42 -5.08 L 93.18 -2.56 Q 89.74 0.61 85.1 0.61 Z M 102.65 0 L 98.74 0 L 98.74 -36.74 L 102.65 -36.74 L 102.65 -11.57 L 102.8 -11.57 L 113.69 -24.98 L 118.11 -24.98 L 109.76 -14.94 L 119.25 0 L 114.93 0 L 107.51 -12.21 L 102.65 -6.64 L 102.65 0 Z M 127.94 0 L 123.99 0 L 123.99 -24.98 L 127.94 -24.98 L 127.94 0 Z M 126.04 -30.25 L 126.04 -30.25 Q 124.84 -30.25 124.11 -30.99 Q 123.38 -31.74 123.38 -32.98 L 123.38 -32.98 Q 123.38 -34.13 124.11 -34.86 Q 124.84 -35.6 126.04 -35.6 L 126.04 -35.6 Q 127.23 -35.6 127.97 -34.86 Q 128.7 -34.13 128.7 -32.98 L 128.7 -32.98 Q 128.7 -31.74 127.97 -30.99 Q 127.23 -30.25 126.04 -30.25 Z M 141.2 0 L 137.22 0 L 137.22 -29.2 Q 137.22 -32.98 138.99 -35.17 Q 140.76 -37.35 144.39 -37.35 L 144.39 -37.35 Q 145.47 -37.35 146.58 -37.11 Q 147.69 -36.87 148.45 -36.52 L 148.45 -36.52 L 147.57 -33.64 Q 145.98 -34.16 144.74 -34.16 L 144.74 -34.16 Q 141.2 -34.16 141.2 -29.15 L 141.2 -29.15 L 141.2 0 Z M 146.54 -21.73 L 133.82 -21.73 L 133.82 -24.78 L 137.36 -24.98 L 146.54 -24.98 L 146.54 -21.73 Z M 151.57 10.86 L 151.57 10.86 Q 150.74 10.86 150.01 10.71 Q 149.27 10.55 148.69 10.3 L 148.69 10.3 L 149.52 7.2 Q 149.98 7.35 150.47 7.46 Q 150.96 7.57 151.37 7.57 L 151.37 7.57 Q 153.55 7.57 154.94 5.98 Q 156.33 4.39 157.14 2 L 157.14 2 L 157.77 0.1 L 147.66 -24.98 L 151.74 -24.98 L 156.99 -10.86 Q 157.58 -9.23 158.21 -7.39 Q 158.84 -5.54 159.46 -3.81 L 159.46 -3.81 L 159.67 -3.81 Q 160.21 -5.54 160.75 -7.37 Q 161.29 -9.2 161.77 -10.86 L 161.77 -10.86 L 166.41 -24.98 L 170.3 -24.98 L 160.8 2.2 Q 159.94 4.61 158.73 6.58 Q 157.53 8.54 155.78 9.7 Q 154.04 10.86 151.57 10.86 Z" stroke-linecap="round" />
</g>
		<g transform="matrix(2.45 0 0 2.45 0.06 483.05)" id="text-1"  >
<path style="stroke: none; stroke-width: 1; stroke-dasharray: none; stroke-linecap: butt; stroke-dashoffset: 0; stroke-linejoin: miter; stroke-miterlimit: 4; fill: rgb(255,255,255); fill-rule: nonzero; opacity: 1;" vector-effect="non-scaling-stroke"  transform=" translate(-254.78, 12.88)" d="M 17.6 -5.85 L 17.6 -11.55 Q 16.6 -11.5 15.7 -11.45 Q 14.8 -11.4 13.93 -11.33 Q 13.05 -11.25 12.35 -11.15 L 12.35 -11.15 Q 8.75 -10.7 7.25 -9.58 Q 5.75 -8.45 5.75 -6.35 L 5.75 -6.35 Q 5.75 -4.6 6.83 -3.73 Q 7.9 -2.85 9.65 -2.85 L 9.65 -2.85 Q 12.05 -2.85 13.93 -3.68 Q 15.8 -4.5 17.6 -5.85 L 17.6 -5.85 Z M 18.05 0.4 L 17.55 -2.35 Q 15.2 -1 13.18 -0.18 Q 11.15 0.65 8.8 0.65 L 8.8 0.65 Q 5.45 0.65 3.48 -0.98 Q 1.5 -2.6 1.5 -6.35 L 1.5 -6.35 Q 1.5 -8.3 2.5 -9.75 Q 3.5 -11.2 5.13 -12.18 Q 6.75 -13.15 8.8 -13.7 Q 10.85 -14.25 13 -14.4 L 13 -14.4 Q 13.9 -14.5 15.35 -14.58 Q 16.8 -14.65 17.6 -14.7 L 17.6 -14.7 Q 17.6 -16.45 17.5 -17.82 Q 17.4 -19.2 16.9 -20.18 Q 16.4 -21.15 15.43 -21.65 Q 14.45 -22.15 12.65 -22.15 L 12.65 -22.15 Q 11.2 -22.15 9.85 -21.98 Q 8.5 -21.8 7.45 -21.6 L 7.45 -21.6 Q 6.2 -21.35 5.15 -21.05 L 5.15 -21.05 L 4.35 -24.5 Q 5.6 -24.8 7.05 -25.05 L 7.05 -25.05 Q 8.3 -25.3 9.95 -25.48 Q 11.6 -25.65 13.5 -25.65 L 13.5 -25.65 Q 16.05 -25.65 17.63 -24.9 Q 19.2 -24.15 20.08 -22.88 Q 20.95 -21.6 21.28 -19.98 Q 21.6 -18.35 21.6 -16.55 L 21.6 -16.55 L 21.6 -4.55 Q 21.6 -3.85 21.63 -3.08 Q 21.65 -2.3 21.73 -1.55 Q 21.8 -0.8 21.9 0 L 21.9 0 L 18.05 0.4 Z M 40.15 11.4 L 40.15 -19.35 Q 40.15 -21.15 39.9 -24.7 L 39.9 -24.7 L 43.6 -25.2 L 44.05 -22.5 Q 45.05 -23.35 46.12 -24.03 Q 47.2 -24.7 48.47 -25.18 Q 49.75 -25.65 51.2 -25.65 L 51.2 -25.65 Q 53.25 -25.65 55.07 -24.95 Q 56.9 -24.25 58.27 -22.7 Q 59.65 -21.15 60.45 -18.68 Q 61.25 -16.2 61.25 -12.6 L 61.25 -12.6 Q 61.25 -8.95 60.17 -6.43 Q 59.1 -3.9 57.37 -2.33 Q 55.65 -0.75 53.47 -0.05 Q 51.3 0.65 49.05 0.65 L 49.05 0.65 Q 46.65 0.6 44.15 0.05 L 44.15 0.05 L 44.15 10.9 L 40.15 11.4 Z M 49.05 -2.85 L 49.05 -2.85 Q 51.15 -2.85 52.65 -3.6 Q 54.15 -4.35 55.12 -5.68 Q 56.1 -7 56.55 -8.72 Q 57 -10.45 57 -12.4 L 57 -12.4 Q 57 -14.15 56.67 -15.9 Q 56.35 -17.65 55.62 -19.03 Q 54.9 -20.4 53.7 -21.28 Q 52.5 -22.15 50.75 -22.15 L 50.75 -22.15 Q 49.45 -22.15 48.3 -21.68 Q 47.15 -21.2 46.12 -20.53 Q 45.1 -19.85 44.15 -19 L 44.15 -19 L 44.15 -3.65 Q 44.7 -3.45 45.37 -3.28 Q 46.05 -3.1 46.97 -2.98 Q 47.9 -2.85 49.05 -2.85 Z M 84.94 -3.95 L 85.69 -0.6 Q 84.54 -0.25 83.32 0 Q 82.09 0.25 80.62 0.45 Q 79.14 0.65 77.54 0.65 L 77.54 0.65 Q 75.04 0.65 72.89 -0.05 Q 70.74 -0.75 69.14 -2.3 Q 67.54 -3.85 66.62 -6.33 Q 65.69 -8.8 65.69 -12.4 L 65.69 -12.4 Q 65.69 -15.65 66.59 -18.13 Q 67.49 -20.6 69.07 -22.28 Q 70.64 -23.95 72.77 -24.8 Q 74.89 -25.65 77.39 -25.65 L 77.39 -25.65 Q 79.84 -25.65 81.64 -24.7 Q 83.44 -23.75 84.62 -22.13 Q 85.79 -20.5 86.37 -18.32 Q 86.94 -16.15 86.94 -13.75 L 86.94 -13.75 L 86.19 -11.55 L 70.04 -11.55 Q 70.04 -10 70.44 -8.45 Q 70.84 -6.9 71.82 -5.65 Q 72.79 -4.4 74.37 -3.63 Q 75.94 -2.85 78.29 -2.85 L 78.29 -2.85 Q 79.79 -2.85 81.04 -3.03 Q 82.29 -3.2 83.22 -3.43 Q 84.14 -3.65 84.94 -3.95 L 84.94 -3.95 Z M 70.19 -14.75 L 82.79 -14.75 Q 82.79 -15.1 82.64 -16.3 Q 82.49 -17.5 81.94 -18.8 Q 81.39 -20.1 80.24 -21.13 Q 79.09 -22.15 77.19 -22.15 L 77.19 -22.15 Q 75.09 -22.15 73.74 -21.28 Q 72.39 -20.4 71.59 -19.2 Q 70.79 -18 70.49 -16.75 Q 70.19 -15.5 70.19 -14.75 L 70.19 -14.75 Z M 92.44 0 L 92.44 -21.1 Q 92.44 -22.25 92.19 -24.7 L 92.19 -24.7 L 95.89 -25.2 L 96.29 -21.55 L 96.34 -21.55 Q 97.24 -22.7 98.09 -23.55 Q 98.94 -24.4 99.87 -25.03 Q 100.79 -25.65 101.64 -25.65 L 101.64 -25.65 Q 102.79 -25.7 104.84 -25.4 L 104.84 -25.4 L 103.94 -21.55 Q 102.29 -21.85 101.64 -21.8 L 101.64 -21.8 Q 100.79 -21.8 99.84 -21 Q 98.89 -20.2 98.19 -19.3 L 98.19 -19.3 Q 97.29 -18.2 96.44 -16.8 L 96.44 -16.8 L 96.44 0 L 92.44 0 Z M 111.39 0 L 111.39 -21.9 L 106.74 -21.9 L 106.74 -25.15 L 111.39 -25.15 Q 111.39 -28.65 111.86 -31.08 Q 112.34 -33.5 113.39 -35.02 Q 114.44 -36.55 116.09 -37.23 Q 117.74 -37.9 120.09 -37.9 L 120.09 -37.9 Q 121.99 -37.9 123.64 -37.27 Q 125.29 -36.65 126.29 -35.75 L 126.29 -35.75 L 124.54 -32.75 Q 123.54 -33.5 122.46 -33.95 Q 121.39 -34.4 120.14 -34.4 L 120.14 -34.4 Q 118.49 -34.4 117.54 -33.68 Q 116.59 -32.95 116.11 -31.7 Q 115.64 -30.45 115.51 -28.78 Q 115.39 -27.1 115.39 -25.15 L 115.39 -25.15 L 121.64 -25.15 L 121.64 -21.9 L 115.39 -21.9 L 115.39 0 L 111.39 0 Z M 128.64 -12.45 L 128.64 -12.45 Q 128.64 -7.6 130.81 -5.23 Q 132.99 -2.85 136.69 -2.85 L 136.69 -2.85 Q 140.34 -2.85 142.39 -5.2 Q 144.44 -7.55 144.44 -12.25 L 144.44 -12.25 Q 144.44 -17.25 142.26 -19.7 Q 140.09 -22.15 136.34 -22.15 L 136.34 -22.15 Q 132.59 -22.15 130.61 -19.73 Q 128.64 -17.3 128.64 -12.45 Z M 124.39 -12.5 L 124.39 -12.5 Q 124.39 -16.3 125.59 -18.82 Q 126.79 -21.35 128.64 -22.88 Q 130.49 -24.4 132.61 -25.03 Q 134.74 -25.65 136.64 -25.65 L 136.64 -25.65 Q 138.44 -25.65 140.56 -25.08 Q 142.69 -24.5 144.49 -23.03 Q 146.29 -21.55 147.49 -19.07 Q 148.69 -16.6 148.69 -12.8 L 148.69 -12.8 Q 148.69 -8.85 147.46 -6.25 Q 146.24 -3.65 144.39 -2.13 Q 142.54 -0.6 140.39 0.03 Q 138.24 0.65 136.39 0.65 L 136.39 0.65 Q 134.49 0.65 132.39 0.05 Q 130.29 -0.55 128.51 -2.02 Q 126.74 -3.5 125.56 -6.05 Q 124.39 -8.6 124.39 -12.5 Z M 154.53 0 L 154.53 -21.1 Q 154.53 -22.25 154.28 -24.7 L 154.28 -24.7 L 157.98 -25.2 L 158.38 -21.55 L 158.43 -21.55 Q 159.33 -22.7 160.18 -23.55 Q 161.03 -24.4 161.96 -25.03 Q 162.88 -25.65 163.73 -25.65 L 163.73 -25.65 Q 164.88 -25.7 166.93 -25.4 L 166.93 -25.4 L 166.03 -21.55 Q 164.38 -21.85 163.73 -21.8 L 163.73 -21.8 Q 162.88 -21.8 161.93 -21 Q 160.98 -20.2 160.28 -19.3 L 160.28 -19.3 Q 159.38 -18.2 158.53 -16.8 L 158.53 -16.8 L 158.53 0 L 154.53 0 Z M 171.38 0 L 171.38 -20.6 Q 171.38 -22.3 171.08 -24.7 L 171.08 -24.7 L 174.83 -25.2 L 175.38 -22.05 Q 176.73 -23.05 178.03 -23.8 Q 179.33 -24.55 180.83 -25.1 Q 182.33 -25.65 183.88 -25.65 L 183.88 -25.65 Q 186.38 -25.65 187.83 -24.78 Q 189.28 -23.9 189.98 -21.8 L 189.98 -21.8 Q 192.03 -23.25 194.26 -24.45 Q 196.48 -25.65 198.88 -25.65 L 198.88 -25.65 Q 200.73 -25.65 202.03 -25.18 Q 203.33 -24.7 204.13 -23.6 Q 204.93 -22.5 205.28 -20.7 Q 205.63 -18.9 205.63 -16.2 L 205.63 -16.2 L 205.63 0 L 201.63 0 L 201.63 -15.75 Q 201.63 -17.25 201.58 -18.43 Q 201.53 -19.6 201.23 -20.43 Q 200.93 -21.25 200.26 -21.7 Q 199.58 -22.15 198.33 -22.15 L 198.33 -22.15 Q 197.18 -22.15 196.16 -21.83 Q 195.13 -21.5 194.03 -20.9 Q 192.93 -20.3 190.63 -18.45 L 190.63 -18.45 L 190.63 0 L 186.63 0 L 186.63 -15.75 Q 186.63 -17.25 186.58 -18.43 Q 186.53 -19.6 186.23 -20.43 Q 185.93 -21.25 185.26 -21.7 Q 184.58 -22.15 183.33 -22.15 L 183.33 -22.15 Q 182.03 -22.15 180.63 -21.6 Q 179.23 -21.05 177.98 -20.3 Q 176.73 -19.55 175.38 -18.55 L 175.38 -18.55 L 175.38 0 L 171.38 0 Z M 226.68 -5.85 L 226.68 -11.55 Q 225.68 -11.5 224.78 -11.45 Q 223.88 -11.4 223 -11.33 Q 222.13 -11.25 221.43 -11.15 L 221.43 -11.15 Q 217.83 -10.7 216.33 -9.58 Q 214.83 -8.45 214.83 -6.35 L 214.83 -6.35 Q 214.83 -4.6 215.9 -3.73 Q 216.98 -2.85 218.73 -2.85 L 218.73 -2.85 Q 221.13 -2.85 223 -3.68 Q 224.88 -4.5 226.68 -5.85 L 226.68 -5.85 Z M 227.13 0.4 L 226.63 -2.35 Q 224.28 -1 222.25 -0.18 Q 220.23 0.65 217.88 0.65 L 217.88 0.65 Q 214.53 0.65 212.55 -0.98 Q 210.58 -2.6 210.58 -6.35 L 210.58 -6.35 Q 210.58 -8.3 211.58 -9.75 Q 212.58 -11.2 214.2 -12.18 Q 215.83 -13.15 217.88 -13.7 Q 219.93 -14.25 222.08 -14.4 L 222.08 -14.4 Q 222.98 -14.5 224.43 -14.58 Q 225.88 -14.65 226.68 -14.7 L 226.68 -14.7 Q 226.68 -16.45 226.58 -17.82 Q 226.48 -19.2 225.98 -20.18 Q 225.48 -21.15 224.5 -21.65 Q 223.53 -22.15 221.73 -22.15 L 221.73 -22.15 Q 220.28 -22.15 218.93 -21.98 Q 217.58 -21.8 216.53 -21.6 L 216.53 -21.6 Q 215.28 -21.35 214.23 -21.05 L 214.23 -21.05 L 213.43 -24.5 Q 214.68 -24.8 216.13 -25.05 L 216.13 -25.05 Q 217.38 -25.3 219.03 -25.48 Q 220.68 -25.65 222.58 -25.65 L 222.58 -25.65 Q 225.13 -25.65 226.7 -24.9 Q 228.28 -24.15 229.15 -22.88 Q 230.03 -21.6 230.35 -19.98 Q 230.68 -18.35 230.68 -16.55 L 230.68 -16.55 L 230.68 -4.55 Q 230.68 -3.85 230.7 -3.08 Q 230.73 -2.3 230.8 -1.55 Q 230.88 -0.8 230.98 0 L 230.98 0 L 227.13 0.4 Z M 237.78 0 L 237.78 -20.15 Q 237.83 -21.2 237.53 -24.7 L 237.53 -24.7 L 241.23 -25.2 L 241.78 -22 Q 243.28 -23 244.75 -23.75 Q 246.23 -24.5 247.78 -25.08 Q 249.33 -25.65 250.78 -25.65 L 250.78 -25.65 Q 252.83 -25.65 254.2 -25.18 Q 255.58 -24.7 256.43 -23.6 Q 257.28 -22.5 257.65 -20.7 Q 258.03 -18.9 258.03 -16.2 L 258.03 -16.2 L 258.03 0 L 254.03 0 L 254.03 -15.75 Q 254.03 -17.25 253.98 -18.43 Q 253.93 -19.6 253.55 -20.43 Q 253.18 -21.25 252.4 -21.7 Q 251.63 -22.15 250.23 -22.15 L 250.23 -22.15 Q 248.93 -22.15 247.48 -21.58 Q 246.03 -21 244.63 -20.25 Q 243.23 -19.5 241.78 -18.5 L 241.78 -18.5 L 241.78 0 L 237.78 0 Z M 281.47 -24.85 L 280.67 -21.5 Q 279.82 -21.7 278.32 -21.93 Q 276.82 -22.15 275.27 -22.15 L 275.27 -22.15 Q 273.02 -22.15 271.6 -21.25 Q 270.17 -20.35 269.37 -18.93 Q 268.57 -17.5 268.27 -15.78 Q 267.97 -14.05 267.97 -12.4 L 267.97 -12.4 Q 267.97 -9.85 268.62 -8.03 Q 269.27 -6.2 270.35 -5.05 Q 271.42 -3.9 272.82 -3.38 Q 274.22 -2.85 275.77 -2.85 L 275.77 -2.85 Q 276.82 -2.85 277.8 -2.98 Q 278.77 -3.1 279.6 -3.28 Q 280.42 -3.45 281.17 -3.7 L 281.17 -3.7 L 281.97 -0.35 Q 280.92 -0.05 280.02 0.15 Q 279.12 0.35 277.9 0.5 Q 276.67 0.65 275.27 0.65 L 275.27 0.65 Q 272.52 0.65 270.37 -0.05 Q 268.22 -0.75 266.75 -2.3 Q 265.27 -3.85 264.5 -6.35 Q 263.72 -8.85 263.72 -12.45 L 263.72 -12.45 Q 263.72 -15.95 264.7 -18.48 Q 265.67 -21 267.27 -22.58 Q 268.87 -24.15 270.95 -24.9 Q 273.02 -25.65 275.27 -25.65 L 275.27 -25.65 Q 276.47 -25.65 277.6 -25.53 Q 278.72 -25.4 279.57 -25.25 L 279.57 -25.25 Q 280.57 -25.05 281.47 -24.85 L 281.47 -24.85 Z M 304.17 -3.95 L 304.92 -0.6 Q 303.77 -0.25 302.55 0 Q 301.32 0.25 299.85 0.45 Q 298.37 0.65 296.77 0.65 L 296.77 0.65 Q 294.27 0.65 292.12 -0.05 Q 289.97 -0.75 288.37 -2.3 Q 286.77 -3.85 285.85 -6.33 Q 284.92 -8.8 284.92 -12.4 L 284.92 -12.4 Q 284.92 -15.65 285.82 -18.13 Q 286.72 -20.6 288.3 -22.28 Q 289.87 -23.95 292 -24.8 Q 294.12 -25.65 296.62 -25.65 L 296.62 -25.65 Q 299.07 -25.65 300.87 -24.7 Q 302.67 -23.75 303.85 -22.13 Q 305.02 -20.5 305.6 -18.32 Q 306.17 -16.15 306.17 -13.75 L 306.17 -13.75 L 305.42 -11.55 L 289.27 -11.55 Q 289.27 -10 289.67 -8.45 Q 290.07 -6.9 291.05 -5.65 Q 292.02 -4.4 293.6 -3.63 Q 295.17 -2.85 297.52 -2.85 L 297.52 -2.85 Q 299.02 -2.85 300.27 -3.03 Q 301.52 -3.2 302.45 -3.43 Q 303.37 -3.65 304.17 -3.95 L 304.17 -3.95 Z M 289.42 -14.75 L 302.02 -14.75 Q 302.02 -15.1 301.87 -16.3 Q 301.72 -17.5 301.17 -18.8 Q 300.62 -20.1 299.47 -21.13 Q 298.32 -22.15 296.42 -22.15 L 296.42 -22.15 Q 294.32 -22.15 292.97 -21.28 Q 291.62 -20.4 290.82 -19.2 Q 290.02 -18 289.72 -16.75 Q 289.42 -15.5 289.42 -14.75 L 289.42 -14.75 Z M 323.02 0 L 324.82 -34.1 L 330.17 -34.1 L 337.87 -13.8 Q 338.52 -12.05 339.07 -10.58 Q 339.62 -9.1 340.02 -7.95 L 340.02 -7.95 Q 340.52 -6.65 340.87 -5.55 L 340.87 -5.55 L 340.97 -5.55 Q 341.27 -6.65 341.72 -7.95 L 341.72 -7.95 Q 342.12 -9.1 342.62 -10.58 Q 343.12 -12.05 343.82 -13.8 L 343.82 -13.8 L 351.67 -34.1 L 357.02 -34.1 L 358.77 0 L 354.52 0 L 353.67 -18.75 Q 353.57 -21.2 353.52 -22.9 Q 353.47 -24.6 353.47 -25.7 L 353.47 -25.7 L 353.47 -27.8 L 353.37 -27.8 Q 353.07 -27.05 352.62 -25.75 L 352.62 -25.75 Q 352.22 -24.65 351.59 -22.93 Q 350.97 -21.2 350.07 -18.75 L 350.07 -18.75 L 343.02 0 L 338.77 0 L 331.67 -18.75 Q 330.72 -21.15 330.12 -22.88 Q 329.52 -24.6 329.12 -25.7 L 329.12 -25.7 Q 328.67 -27 328.42 -27.8 L 328.42 -27.8 L 328.32 -27.8 Q 328.37 -27 328.42 -25.7 L 328.42 -25.7 Q 328.47 -23.6 328.27 -18.75 L 328.27 -18.75 L 327.27 0 L 323.02 0 Z M 379.96 -5.85 L 379.96 -11.55 Q 378.96 -11.5 378.06 -11.45 Q 377.16 -11.4 376.29 -11.33 Q 375.41 -11.25 374.71 -11.15 L 374.71 -11.15 Q 371.11 -10.7 369.61 -9.58 Q 368.11 -8.45 368.11 -6.35 L 368.11 -6.35 Q 368.11 -4.6 369.19 -3.73 Q 370.26 -2.85 372.01 -2.85 L 372.01 -2.85 Q 374.41 -2.85 376.29 -3.68 Q 378.16 -4.5 379.96 -5.85 L 379.96 -5.85 Z M 380.41 0.4 L 379.91 -2.35 Q 377.56 -1 375.54 -0.18 Q 373.51 0.65 371.16 0.65 L 371.16 0.65 Q 367.81 0.65 365.84 -0.98 Q 363.86 -2.6 363.86 -6.35 L 363.86 -6.35 Q 363.86 -8.3 364.86 -9.75 Q 365.86 -11.2 367.49 -12.18 Q 369.11 -13.15 371.16 -13.7 Q 373.21 -14.25 375.36 -14.4 L 375.36 -14.4 Q 376.26 -14.5 377.71 -14.58 Q 379.16 -14.65 379.96 -14.7 L 379.96 -14.7 Q 379.96 -16.45 379.86 -17.82 Q 379.76 -19.2 379.26 -20.18 Q 378.76 -21.15 377.79 -21.65 Q 376.81 -22.15 375.01 -22.15 L 375.01 -22.15 Q 373.56 -22.15 372.21 -21.98 Q 370.86 -21.8 369.81 -21.6 L 369.81 -21.6 Q 368.56 -21.35 367.51 -21.05 L 367.51 -21.05 L 366.71 -24.5 Q 367.96 -24.8 369.41 -25.05 L 369.41 -25.05 Q 370.66 -25.3 372.31 -25.48 Q 373.96 -25.65 375.86 -25.65 L 375.86 -25.65 Q 378.41 -25.65 379.99 -24.9 Q 381.56 -24.15 382.44 -22.88 Q 383.31 -21.6 383.64 -19.98 Q 383.96 -18.35 383.96 -16.55 L 383.96 -16.55 L 383.96 -4.55 Q 383.96 -3.85 383.99 -3.08 Q 384.01 -2.3 384.09 -1.55 Q 384.16 -0.8 384.26 0 L 384.26 0 L 380.41 0.4 Z M 391.06 0 L 391.06 -20.15 Q 391.11 -21.2 390.81 -24.7 L 390.81 -24.7 L 394.51 -25.2 L 395.06 -22 Q 396.56 -23 398.04 -23.75 Q 399.51 -24.5 401.06 -25.08 Q 402.61 -25.65 404.06 -25.65 L 404.06 -25.65 Q 406.11 -25.65 407.49 -25.18 Q 408.86 -24.7 409.71 -23.6 Q 410.56 -22.5 410.94 -20.7 Q 411.31 -18.9 411.31 -16.2 L 411.31 -16.2 L 411.31 0 L 407.31 0 L 407.31 -15.75 Q 407.31 -17.25 407.26 -18.43 Q 407.21 -19.6 406.84 -20.43 Q 406.46 -21.25 405.69 -21.7 Q 404.91 -22.15 403.51 -22.15 L 403.51 -22.15 Q 402.21 -22.15 400.76 -21.58 Q 399.31 -21 397.91 -20.25 Q 396.51 -19.5 395.06 -18.5 L 395.06 -18.5 L 395.06 0 L 391.06 0 Z M 432.36 -5.85 L 432.36 -11.55 Q 431.36 -11.5 430.46 -11.45 Q 429.56 -11.4 428.68 -11.33 Q 427.81 -11.25 427.11 -11.15 L 427.11 -11.15 Q 423.51 -10.7 422.01 -9.58 Q 420.51 -8.45 420.51 -6.35 L 420.51 -6.35 Q 420.51 -4.6 421.58 -3.73 Q 422.66 -2.85 424.41 -2.85 L 424.41 -2.85 Q 426.81 -2.85 428.68 -3.68 Q 430.56 -4.5 432.36 -5.85 L 432.36 -5.85 Z M 432.81 0.4 L 432.31 -2.35 Q 429.96 -1 427.93 -0.18 Q 425.91 0.65 423.56 0.65 L 423.56 0.65 Q 420.21 0.65 418.23 -0.98 Q 416.26 -2.6 416.26 -6.35 L 416.26 -6.35 Q 416.26 -8.3 417.26 -9.75 Q 418.26 -11.2 419.88 -12.18 Q 421.51 -13.15 423.56 -13.7 Q 425.61 -14.25 427.76 -14.4 L 427.76 -14.4 Q 428.66 -14.5 430.11 -14.58 Q 431.56 -14.65 432.36 -14.7 L 432.36 -14.7 Q 432.36 -16.45 432.26 -17.82 Q 432.16 -19.2 431.66 -20.18 Q 431.16 -21.15 430.18 -21.65 Q 429.21 -22.15 427.41 -22.15 L 427.41 -22.15 Q 425.96 -22.15 424.61 -21.98 Q 423.26 -21.8 422.21 -21.6 L 422.21 -21.6 Q 420.96 -21.35 419.91 -21.05 L 419.91 -21.05 L 419.11 -24.5 Q 420.36 -24.8 421.81 -25.05 L 421.81 -25.05 Q 423.06 -25.3 424.71 -25.48 Q 426.36 -25.65 428.26 -25.65 L 428.26 -25.65 Q 430.81 -25.65 432.38 -24.9 Q 433.96 -24.15 434.83 -22.88 Q 435.71 -21.6 436.03 -19.98 Q 436.36 -18.35 436.36 -16.55 L 436.36 -16.55 L 436.36 -4.55 Q 436.36 -3.85 436.38 -3.08 Q 436.41 -2.3 436.48 -1.55 Q 436.56 -0.8 436.66 0 L 436.66 0 L 432.81 0.4 Z M 463.11 -24.55 L 463.11 2.4 Q 463.11 4.25 462.71 6 Q 462.31 7.75 461.18 9.13 Q 460.06 10.5 458.03 11.33 Q 456.01 12.15 452.71 12.15 L 452.71 12.15 Q 450.61 12.1 449.06 11.9 Q 447.51 11.7 446.11 11.33 Q 444.71 10.95 443.56 10.45 L 443.56 10.45 L 444.61 6.95 Q 446.56 7.8 448.58 8.25 Q 450.61 8.7 452.21 8.7 L 452.21 8.7 Q 453.96 8.7 455.26 8.35 Q 456.56 8 457.43 7.18 Q 458.31 6.35 458.73 5 Q 459.16 3.65 459.16 1.65 L 459.16 1.65 L 459.16 -2 Q 458.11 -1.3 456.98 -0.73 Q 455.86 -0.15 454.58 0.25 Q 453.31 0.65 452.11 0.65 L 452.11 0.65 Q 447.46 0.65 444.76 -2.63 Q 442.06 -5.9 442.06 -12.4 L 442.06 -12.4 Q 442.06 -16.15 443.23 -18.68 Q 444.41 -21.2 446.21 -22.75 Q 448.01 -24.3 450.16 -24.98 Q 452.31 -25.65 454.26 -25.65 L 454.26 -25.65 Q 456.81 -25.65 458.93 -25.23 Q 461.06 -24.8 463.11 -24.55 L 463.11 -24.55 Z M 452.56 -2.85 L 452.56 -2.85 Q 453.66 -2.85 454.81 -3.25 Q 455.96 -3.65 457.03 -4.2 Q 458.11 -4.75 459.16 -5.5 L 459.16 -5.5 L 459.16 -21.45 Q 458.56 -21.6 457.76 -21.8 L 457.76 -21.8 Q 457.06 -21.9 456.16 -22.03 Q 455.26 -22.15 454.26 -22.15 L 454.26 -22.15 Q 452.16 -22.15 450.66 -21.4 Q 449.16 -20.65 448.18 -19.35 Q 447.21 -18.05 446.76 -16.3 Q 446.31 -14.55 446.31 -12.6 L 446.31 -12.6 Q 446.31 -10.85 446.68 -9.1 Q 447.06 -7.35 447.86 -5.95 Q 448.66 -4.55 449.81 -3.7 Q 450.96 -2.85 452.56 -2.85 Z M 488.15 -3.95 L 488.9 -0.6 Q 487.75 -0.25 486.53 0 Q 485.3 0.25 483.83 0.45 Q 482.35 0.65 480.75 0.65 L 480.75 0.65 Q 478.25 0.65 476.1 -0.05 Q 473.95 -0.75 472.35 -2.3 Q 470.75 -3.85 469.83 -6.33 Q 468.9 -8.8 468.9 -12.4 L 468.9 -12.4 Q 468.9 -15.65 469.8 -18.13 Q 470.7 -20.6 472.28 -22.28 Q 473.85 -23.95 475.98 -24.8 Q 478.1 -25.65 480.6 -25.65 L 480.6 -25.65 Q 483.05 -25.65 484.85 -24.7 Q 486.65 -23.75 487.83 -22.13 Q 489 -20.5 489.58 -18.32 Q 490.15 -16.15 490.15 -13.75 L 490.15 -13.75 L 489.4 -11.55 L 473.25 -11.55 Q 473.25 -10 473.65 -8.45 Q 474.05 -6.9 475.03 -5.65 Q 476 -4.4 477.58 -3.63 Q 479.15 -2.85 481.5 -2.85 L 481.5 -2.85 Q 483 -2.85 484.25 -3.03 Q 485.5 -3.2 486.43 -3.43 Q 487.35 -3.65 488.15 -3.95 L 488.15 -3.95 Z M 473.4 -14.75 L 486 -14.75 Q 486 -15.1 485.85 -16.3 Q 485.7 -17.5 485.15 -18.8 Q 484.6 -20.1 483.45 -21.13 Q 482.3 -22.15 480.4 -22.15 L 480.4 -22.15 Q 478.3 -22.15 476.95 -21.28 Q 475.6 -20.4 474.8 -19.2 Q 474 -18 473.7 -16.75 Q 473.4 -15.5 473.4 -14.75 L 473.4 -14.75 Z M 495.65 0 L 495.65 -21.1 Q 495.65 -22.25 495.4 -24.7 L 495.4 -24.7 L 499.1 -25.2 L 499.5 -21.55 L 499.55 -21.55 Q 500.45 -22.7 501.3 -23.55 Q 502.15 -24.4 503.08 -25.03 Q 504 -25.65 504.85 -25.65 L 504.85 -25.65 Q 506 -25.7 508.05 -25.4 L 508.05 -25.4 L 507.15 -21.55 Q 505.5 -21.85 504.85 -21.8 L 504.85 -21.8 Q 504 -21.8 503.05 -21 Q 502.1 -20.2 501.4 -19.3 L 501.4 -19.3 Q 500.5 -18.2 499.65 -16.8 L 499.65 -16.8 L 499.65 0 L 495.65 0 Z" stroke-linecap="round" />
</g>
		<g transform="matrix(9.64 0 0 9.64 318.49 -248.63)"  >
<path style="stroke: none; stroke-width: 1; stroke-dasharray: none; stroke-linecap: butt; stroke-dashoffset: 0; stroke-linejoin: miter; stroke-miterlimit: 4; fill: rgb(255,255,255); fill-rule: nonzero; opacity: 1;" vector-effect="non-scaling-stroke"  transform=" translate(-83.03, -54.45)" d="M 80.737 63.429 C 80.737 65.851 82.699 67.813 85.121 67.813 C 87.54299999999999 67.813 89.506 65.851 89.506 63.429 C 89.51568491157278 55.449389314400115 87.1022285253415 47.65491205027044 82.585 41.077 C 80.675 43.252 78.631 45.574 76.55 47.931 C 79.2955717609222 52.634188514940746 80.74064690648581 57.98307186959676 80.737 63.42899999999998" stroke-linecap="round" />
</g>
		<g transform="matrix(9.64 0 0 9.64 -71.65 -332.07)"  >
<path style="stroke: none; stroke-width: 1; stroke-dasharray: none; stroke-linecap: butt; stroke-dashoffset: 0; stroke-linejoin: miter; stroke-miterlimit: 4; fill: rgb(255,255,255); fill-rule: nonzero; opacity: 1;" vector-effect="non-scaling-stroke"  transform=" translate(-42.57, -45.79)" d="M 49.849 23.772 C 27.983 23.772 10.194 41.562 10.194 63.429 C 10.194 65.851 12.157 67.813 14.579 67.813 C 17.001 67.813 18.963 65.851 18.963 63.429 C 18.963 46.397 32.818 32.541 49.849 32.541 C 55.97117345721468 32.53345319270314 61.95578753298053 34.35652300280697 67.03400000000002 37.77600000000001 C 69.749 36.047 72.431 34.343 74.947 32.749 C 68.104 27.143 59.363 23.772 49.849 23.772" stroke-linecap="round" />
</g>
		<g transform="matrix(9.64 0 0 9.64 151.31 -304.43)"  >
<path style="stroke: none; stroke-width: 1; stroke-dasharray: none; stroke-linecap: butt; stroke-dashoffset: 0; stroke-linejoin: miter; stroke-miterlimit: 4; fill: rgb(255,255,255); fill-rule: nonzero; opacity: 1;" vector-effect="non-scaling-stroke"  transform=" translate(-65.69, -48.66)" d="M 89.807 27.512 C 89.807 27.512 47.153 54.36 44.084 56.984 C 41.05914249813048 59.61827978786231 40.72202905265999 64.19797336439831 43.32855170226637 67.2467817520221 C 45.93507435187275 70.2955901396459 50.511495426438984 70.67454776042695 53.584 68.096 C 56.651 65.472 89.807 27.512 89.807 27.512" stroke-linecap="round" />
</g>
		<g transform="matrix(9.64 0 0 9.64 -3.57 -378.01)"  >
<circle style="stroke: none; stroke-width: 1; stroke-dasharray: none; stroke-linecap: butt; stroke-dashoffset: 0; stroke-linejoin: miter; stroke-miterlimit: 4; fill: rgb(255,255,255); fill-rule: nonzero; opacity: 1;" vector-effect="non-scaling-stroke"  cx="0" cy="0" r="3.9" />
</g>
		<g transform="matrix(9.64 0 0 9.64 -158.54 -313.82)"  >
<circle style="stroke: none; stroke-width: 1; stroke-dasharray: none; stroke-linecap: butt; stroke-dashoffset: 0; stroke-linejoin: miter; stroke-miterlimit: 4; fill: rgb(255,255,255); fill-rule: nonzero; opacity: 1;" vector-effect="non-scaling-stroke"  cx="0" cy="0" r="3.9" />
</g>
		<g transform="matrix(9.64 0 0 9.64 -222.73 -158.86)"  >
<circle style="stroke: none; stroke-width: 1; stroke-dasharray: none; stroke-linecap: butt; stroke-dashoffset: 0; stroke-linejoin: miter; stroke-miterlimit: 4; fill: rgb(255,255,255); fill-rule: nonzero; opacity: 1;" vector-effect="non-scaling-stroke"  cx="0" cy="0" r="3.9" />
</g>
		<g transform="matrix(9.64 0 0 9.64 215.6 -158.86)"  >
<circle style="stroke: none; stroke-width: 1; stroke-dasharray: none; stroke-linecap: butt; stroke-dashoffset: 0; stroke-linejoin: miter; stroke-miterlimit: 4; fill: rgb(255,255,255); fill-rule: nonzero; opacity: 1;" vector-effect="non-scaling-stroke"  cx="0" cy="0" r="3.9" />
</g>
		<g transform="matrix(5.83 0 0 5.83 0 0)"  >
<rect style="stroke: none; stroke-width: 1; stroke-dasharray: none; stroke-linecap: butt; stroke-dashoffset: 0; stroke-linejoin: miter; stroke-miterlimit: 4; fill: none; fill-rule: nonzero; opacity: 1;" vector-effect="non-scaling-stroke"  x="-171.4257792588769" y="-171.4257792588769" rx="0" ry="0" width="342.8515585177538" height="342.8515585177538" />
</g>
</g>
</g>
</svg>