<svg xmlns="http://www.w3.org/2000/svg" version="1.1" xmlns:xlink="http://www.w3.org/1999/xlink" xmlns:svgjs="http://svgjs.dev/svgjs" width="2000" height="1500" viewBox="0 0 2000 1500"><rect width="2000" height="1500" fill="#31c48d"></rect><g transform="matrix(0.75,0,0,0.75,249.090909090909,609.9400983688636)"><svg viewBox="0 0 396 74" data-background-color="#31c48d" preserveAspectRatio="xMidYMid meet" height="373" width="2000" xmlns="http://www.w3.org/2000/svg" xmlns:xlink="http://www.w3.org/1999/xlink"><g id="tight-bounds" transform="matrix(1,0,0,1,0.2400000000000091,0.04891052977336585)"><svg viewBox="0 0 395.52 73.90217894045328" height="73.90217894045328" width="395.52"><g><svg viewBox="0 0 557.436837467334 104.15603992342054" height="73.90217894045328" width="395.52"><g><rect width="9.346168327688822" height="104.15603992342054" x="128.10425990485768" y="0" fill="#ffffff" opacity="1" stroke-width="0" stroke="transparent" fill-opacity="1" class="rect-yte-0" data-fill-palette-color="primary" rx="1%" id="yte-0" data-palette-color="#ffffff"></rect></g><g transform="matrix(1,0,0,1,161.916837467334,0.25909462667517147)"><svg viewBox="0 0 395.52 103.6378506700702" height="103.6378506700702" width="395.52"><g id="textblocktransform"><svg viewBox="0 0 395.52 103.6378506700702" height="103.6378506700702" width="395.52" id="textblock"><g><svg viewBox="0 0 395.52 103.6378506700702" height="103.6378506700702" width="395.52"><g transform="matrix(1,0,0,1,0,0)"><svg width="395.52" viewBox="0 -38.38 191.27 50.120000000000005" height="103.6378506700702" data-palette-color="#ffffff"><path d="M19.04-28.59L19.04-1.29Q19.04-0.56 18.74-0.28 18.43 0 17.7 0L17.7 0 12.5 0Q11.77 0 11.46-0.28 11.16-0.56 11.16-1.29L11.16-1.29 11.16-28.59 3.88-28.59Q3.3-28.59 3-28.78L3-28.78Q2.37-29.22 1.7-29.83 1.03-30.44 0.24-31.3L0.24-31.3Q0-31.62 0-31.81L0-31.81Q0-32.03 0.24-32.3L0.24-32.3Q1.03-33.15 1.7-33.76 2.37-34.38 3-34.81L3-34.81Q3.34-35.01 3.88-35.01L3.88-35.01 26.34-35.01Q26.93-35.01 27.22-34.81L27.22-34.81Q27.86-34.38 28.54-33.76 29.22-33.15 29.98-32.3L29.98-32.3Q30.22-31.98 30.22-31.79L30.22-31.79Q30.22-31.57 29.98-31.3L29.98-31.3Q29.22-30.44 28.54-29.83 27.86-29.22 27.22-28.78L27.22-28.78Q26.88-28.59 26.34-28.59L26.34-28.59 19.04-28.59ZM41.23-22.17L41.23-20.36 41.33-20.36Q43.16-25.44 47.92-25.44L47.92-25.44Q48.53-25.44 48.92-25.38 49.31-25.32 49.46-25.27L49.46-25.27Q49.83-25.15 49.83-24.71L49.83-24.71 49.83-18.82Q49.83-18.07 48.95-18.41L48.95-18.41Q48.65-18.53 48.11-18.66 47.56-18.8 46.58-18.8L46.58-18.8Q44.06-18.8 42.65-16.96 41.23-15.11 41.23-11.94L41.23-11.94 41.23-1.29Q41.23-0.56 40.93-0.28 40.62 0 39.89 0L39.89 0 34.86 0Q34.13 0 33.82-0.28 33.52-0.56 33.52-1.29L33.52-1.29 33.52-21.75Q33.52-22.34 33.76-22.66L33.76-22.66Q34.27-23.34 35-24.05 35.72-24.76 36.77-25.56L36.77-25.56Q36.96-25.71 37.16-25.76 37.35-25.81 37.5-25.81L37.5-25.81Q37.84-25.81 38.18-25.56L38.18-25.56Q40.21-23.97 41.01-22.85L41.01-22.85Q41.23-22.56 41.23-22.17L41.23-22.17ZM59.93 0.61L59.93 0.61Q56.34 0.61 54.23-1.4 52.12-3.42 52.12-6.96L52.12-6.96Q52.12-8.79 52.79-10.36 53.46-11.94 55.13-13.15 56.81-14.36 59.82-15.09 62.84-15.82 67.52-15.94L67.52-15.94Q67.52-18.16 66.41-19.14 65.3-20.12 63.08-20.12L63.08-20.12Q61.08-20.12 59.81-19.43 58.54-18.75 58.22-18.51L58.22-18.51Q57.88-18.21 57.39-18.29L57.39-18.29Q56.73-18.38 55.99-18.63 55.24-18.87 54.39-19.19L54.39-19.19Q54.27-19.24 54.12-19.35 53.97-19.46 53.95-19.68L53.95-19.68Q53.95-19.8 53.97-19.98 54-20.17 54.1-20.65L54.1-20.65Q54.19-21.14 54.39-21.86 54.58-22.58 54.76-22.97L54.76-22.97Q54.98-23.39 55.49-23.75L55.49-23.75Q55.9-24.1 58-24.85 60.1-25.61 64.08-25.61L64.08-25.61Q75.04-25.61 75.04-14.94L75.04-14.94 75.04-1.12Q75.04-0.66 74.79-0.33 74.53 0 73.92 0L73.92 0 70.26 0Q69.87 0 69.56-0.11 69.26-0.22 68.99-0.54L68.99-0.54 67.48-2.49 67.3-2.49Q66.18-0.85 64.29-0.12 62.4 0.61 59.93 0.61ZM62.62-5.05L62.62-5.05Q64.86-5.05 66.01-6.2 67.16-7.35 67.48-8.57L67.48-8.57 67.48-11.28Q64.08-11.28 62.39-10.75 60.69-10.23 60.13-9.39 59.57-8.54 59.57-7.57L59.57-7.57Q59.57-6.15 60.44-5.6 61.32-5.05 62.62-5.05ZM94.08-25.61L94.08-25.61Q96.99-25.61 98.31-25.13 99.63-24.66 99.97-24.39L99.97-24.39Q100.51-24.05 100.8-23.51L100.8-23.51Q100.97-23.24 101.19-22.58 101.41-21.92 101.51-21.14L101.51-21.14Q101.63-20.53 101.53-20.28 101.43-20.02 100.92-19.65L100.92-19.65Q100.33-19.26 99.64-18.96 98.94-18.65 98.5-18.53L98.5-18.53Q98.14-18.43 97.94-18.48 97.75-18.53 97.4-18.77L97.4-18.77Q97.01-19.04 96.31-19.37 95.6-19.7 94.35-19.7L94.35-19.7Q92.77-19.7 91.34-18.92 89.91-18.14 89.02-16.58 88.13-15.01 88.13-12.67L88.13-12.67Q88.13-9.16 89.97-7.23 91.81-5.3 94.91-5.3L94.91-5.3Q96.5-5.3 97.55-5.63 98.6-5.96 99.21-6.3L99.21-6.3Q99.7-6.57 99.96-6.43 100.21-6.3 100.36-5.96L100.36-5.96 102.14-1.93Q102.41-1.29 101.85-1.03L101.85-1.03Q100.94-0.56 98.87 0.02 96.79 0.61 93.74 0.61L93.74 0.61Q87.61 0.61 83.95-2.65 80.29-5.91 80.29-12.4L80.29-12.4Q80.29-16.55 81.97-19.51 83.66-22.46 86.76-24.04 89.86-25.61 94.08-25.61ZM113.83-10.21L113.83-1.29Q113.83-0.56 113.53-0.28 113.22 0 112.49 0L112.49 0 107.46 0Q106.73 0 106.42-0.28 106.12-0.56 106.12-1.29L106.12-1.29 106.12-34.33Q106.12-34.91 106.36-35.23L106.36-35.23Q107.39-36.57 109.37-38.13L109.37-38.13Q109.71-38.38 109.98-38.38L109.98-38.38Q110.29-38.38 110.59-38.13L110.59-38.13Q111.64-37.33 112.36-36.62 113.08-35.91 113.59-35.23L113.59-35.23Q113.83-34.91 113.83-34.33L113.83-34.33 113.83-15.16 114.13-15.16Q117.84-15.16 119.17-16.49 120.5-17.82 120.5-20.19L120.5-20.19 120.5-21.51Q120.5-22.09 120.74-22.41L120.74-22.41Q121.77-23.75 123.74-25.32L123.74-25.32Q124.09-25.56 124.36-25.56L124.36-25.56Q124.67-25.56 124.97-25.32L124.97-25.32Q126.02-24.51 126.74-23.8 127.46-23.1 127.97-22.41L127.97-22.41Q128.21-22.09 128.21-21.51L128.21-21.51 128.21-20.19Q128.21-18.8 127.66-17.11 127.11-15.43 125.67-14.14 124.23-12.84 121.57-12.62L121.57-12.62 121.57-12.5Q123.62-11.6 125.11-10.11 126.6-8.62 127.6-6.92 128.6-5.22 129.15-3.67 129.7-2.12 129.87-1.05L129.87-1.05Q130.04 0 129.16 0L129.16 0 122.74 0Q121.91 0 121.79-1L121.79-1Q121.62-2.15 121.05-3.7 120.47-5.25 119.51-6.74 118.54-8.23 117.19-9.22 115.83-10.21 114.13-10.21L114.13-10.21 113.83-10.21ZM133.29-33.2L133.29-33.2Q133.29-33.52 133.48-33.76 133.68-34.01 134-34.4L134-34.4Q134.68-35.18 135.58-36.05 136.49-36.91 137.41-37.72L137.41-37.72Q138-38.18 138.29-38.18L138.29-38.18Q138.59-38.18 139.2-37.72L139.2-37.72Q141.17-36.01 142.57-34.4L142.57-34.4Q142.88-34.03 143.09-33.78 143.3-33.52 143.3-33.2L143.3-33.2Q143.3-32.89 143.09-32.64 142.88-32.4 142.54-31.98L142.54-31.98Q141.88-31.23 141-30.36 140.12-29.49 139.2-28.71L139.2-28.71Q138.85-28.42 138.66-28.33 138.46-28.25 138.29-28.25L138.29-28.25Q138.12-28.25 137.94-28.33 137.76-28.42 137.37-28.71L137.37-28.71Q136.39-29.49 135.53-30.36 134.68-31.23 134-32.03L134-32.03Q133.68-32.42 133.48-32.65 133.29-32.89 133.29-33.2ZM142.13-23.71L142.13-1.29Q142.13-0.56 141.82-0.28 141.52 0 140.78 0L140.78 0 135.75 0Q135.02 0 134.72-0.28 134.41-0.56 134.41-1.29L134.41-1.29 134.41-23.71Q134.41-24.44 134.72-24.72 135.02-25 135.75-25L135.75-25 140.78-25Q141.52-25 141.82-24.72 142.13-24.44 142.13-23.71L142.13-23.71ZM158.46-19.31L158.46-1.29Q158.46-0.56 158.15-0.28 157.85 0 157.11 0L157.11 0 152.08 0Q151.35 0 151.05-0.28 150.74-0.56 150.74-1.29L150.74-1.29 150.74-19.31 147.86-19.31Q147.13-19.31 146.85-19.62 146.57-19.92 146.57-20.65L146.57-20.65 146.57-23.66Q146.57-24.39 146.85-24.69 147.13-25 147.86-25L147.86-25 150.74-25 150.74-28.1Q150.74-31.05 151.93-33.18 153.11-35.3 155.12-36.45 157.14-37.6 159.6-37.6L159.6-37.6Q160.75-37.6 161.35-37.5 161.95-37.4 162.24-37.21L162.24-37.21Q163.19-36.67 164.88-35.01L164.88-35.01Q165.15-34.72 165.15-34.42L165.15-34.42Q165.15-34.11 164.73-33.69L164.73-33.69Q164-32.93 163.34-32.41 162.68-31.88 162.27-31.62L162.27-31.62Q161.9-31.4 161.62-31.36 161.34-31.32 160.85-31.32L160.85-31.32Q158.46-31.32 158.46-27.66L158.46-27.66 158.46-25 162.88-25Q163.61-25 163.89-24.69 164.17-24.39 164.17-23.66L164.17-23.66 164.17-20.65Q164.17-19.92 163.89-19.62 163.61-19.31 162.88-19.31L162.88-19.31 158.46-19.31ZM168.63 11.74L168.63 11.74Q167.73 11.74 167.27 11.56 166.8 11.38 166.49 11.11L166.49 11.11Q165.85 10.5 165.12 9.4L165.12 9.4Q164.95 9.13 164.75 8.78 164.56 8.42 164.56 8.18L164.56 8.18Q164.56 7.91 164.68 7.69 164.8 7.47 164.97 7.28L164.97 7.28Q165.36 6.76 165.92 6.21 166.49 5.66 166.88 5.35L166.88 5.35Q167.15 5.13 167.32 5.07 167.49 5 167.61 5L167.61 5Q167.73 5 167.98 5.05 168.22 5.1 168.71 5.1L168.71 5.1Q170.39 5.1 172.22 4 174.05 2.91 175.84-0.12L175.84-0.12Q173.98-1.83 172.19-4.41 170.39-6.98 168.95-10 167.51-13.01 166.65-16.02 165.78-19.02 165.78-21.56L165.78-21.56Q165.78-22.09 166.05-22.41L166.05-22.41Q167.17-23.8 169.25-25.32L169.25-25.32Q169.61-25.56 169.9-25.56L169.9-25.56Q170.22-25.56 170.56-25.32L170.56-25.32Q171.69-24.51 172.46-23.8 173.22-23.1 173.76-22.41L173.76-22.41Q174.03-22.09 174.03-21.51L174.03-21.51 174.03-21.61Q174.03-19.68 174.49-17.53 174.96-15.38 175.76-13.34 176.57-11.3 177.57-9.66 178.57-8.01 179.65-7.03L179.65-7.03 179.77-7.03Q180.26-7.96 180.85-9.7 181.45-11.45 181.99-13.59 182.53-15.72 182.87-17.83 183.21-19.95 183.21-21.58L183.21-21.58 183.21-21.51Q183.21-22.09 183.45-22.41L183.45-22.41Q184.02-23.1 184.77-23.8 185.53-24.51 186.6-25.32L186.6-25.32Q186.95-25.56 187.24-25.56L187.24-25.56Q187.58-25.56 187.87-25.32L187.87-25.32Q188.97-24.51 189.73-23.8 190.49-23.1 191.02-22.41L191.02-22.41Q191.27-22.09 191.27-21.53L191.27-21.53Q191.24-19.31 190.41-15.73 189.58-12.16 188-7.98 186.41-3.81 184.14 0.2L184.14 0.2Q180.74 6.23 176.81 8.98 172.88 11.74 168.63 11.74ZM191.27-21.58L191.27-21.58 191.27-21.51 191.27-21.53Q191.27-21.56 191.27-21.58ZM165.78-21.51L165.78-21.58 165.78-21.56 165.78-21.51Z" opacity="1" transform="matrix(1,0,0,1,0,0)" fill="#ffffff" class="wordmark-text-0" data-fill-palette-color="primary" id="text-0"></path></svg></g></svg></g></svg></g></svg></g><g transform="matrix(1,0,0,1,0,0.25909462667517147)"><svg viewBox="0 0 103.6378506700702 103.6378506700702" height="103.6378506700702" width="103.6378506700702"><g><svg xmlns="http://www.w3.org/2000/svg" xmlns:xlink="http://www.w3.org/1999/xlink" version="1.1" x="0" y="0" viewBox="0 0 512 512" enable-background="new 0 0 512 512" xml:space="preserve" height="103.6378506700702" width="103.6378506700702" class="icon-icon-0" data-fill-palette-color="accent" id="icon-0"><path d="M512 480V512H0V0H32V480zM228.906 177.719L359.625 210.375 404.875 135 445.875 159.625 448 32 336.406 93.938 377.406 118.563 344.375 173.626 219.094 142.282 84.688 276.688 107.313 299.313zM192 448H256V217.469L238.719 213.156 192 259.875zM96 333.25V448H160V291.875L107.312 344.563zM384 232V448H448V198.219L415.844 178.938zM352 448V241.469L288 225.469V448z" fill="#ffffff" data-fill-palette-color="accent"></path></svg></g></svg></g></svg></g><defs></defs></svg><rect width="395.52" height="73.90217894045328" fill="none" stroke="none" visibility="hidden"></rect></g></svg></g></svg>